# xmcd CD database file
#
# Track frame offsets:
#	150
#	9134
#	31709
#	47964
#	62152
#	77873
#	100132
#	113627
#	128234
#	144767
#	162400
#	176532
#	191327
#
# Disc length: 2701 seconds
#
# Revision: 0
# Processed by: cddbd v1.5.1PL2 Copyright (c) Steve Scherf et al.
# Submitted via: CDex 1.51
#
DISCID=9c0a8b0d
DTITLE=Kevin McKendree - Hummers and Strings
DYEAR=2005
DGENRE=Blues
TTITLE0=Boogie #427
TTITLE1=From Way Behind
TTITLE2=Mr. Boo
TTITLE3=Henry's Dead
TTITLE4=Let's Go Get Stoned
TTITLE5=Sixty Sharp Knives
TTITLE6=Think For Yourself
TTITLE7=Just Before Sunrise
TTITLE8=Fuss Bird
TTITLE9=Gone Away
TTITLE10=Funky Kayjay
TTITLE11=Fool's Paradise
TTITLE12=Cansion
EXTD=YEAR: 2005
EXTT0=
EXTT1=
EXTT2=
EXTT3=
EXTT4=
EXTT5=
EXTT6=
EXTT7=
EXTT8=
EXTT9=
EXTT10=
EXTT11=
EXTT12=
PLAYORDER=
